<svg width="17" height="17" viewBox="0 0 17 17" fill="none" xmlns="http://www.w3.org/2000/svg">
<g clip-path="url(#clip0_14_98)">
<path d="M8.02297 7.85048H0.689636V2.51715C0.689636 1.98672 0.90035 1.47801 1.27542 1.10294C1.6505 0.727865 2.1592 0.517151 2.68964 0.517151L8.02297 0.517151V7.85048ZM2.02297 6.51715H6.68964V1.85048H2.68964C2.51283 1.85048 2.34326 1.92072 2.21823 2.04575C2.09321 2.17077 2.02297 2.34034 2.02297 2.51715V6.51715Z" fill="white"/>
<path d="M16.6896 7.85048H9.35629V0.517151H14.6896C15.2201 0.517151 15.7288 0.727865 16.1038 1.10294C16.4789 1.47801 16.6896 1.98672 16.6896 2.51715V7.85048ZM10.6896 6.51715H15.3563V2.51715C15.3563 2.34034 15.2861 2.17077 15.161 2.04575C15.036 1.92072 14.8664 1.85048 14.6896 1.85048H10.6896V6.51715Z" fill="white"/>
<path d="M8.02297 16.5171H2.68964C2.1592 16.5171 1.6505 16.3064 1.27542 15.9314C0.90035 15.5563 0.689636 15.0476 0.689636 14.5171L0.689636 9.18381H8.02297V16.5171ZM2.02297 10.5171V14.5171C2.02297 14.694 2.09321 14.8635 2.21823 14.9885C2.34326 15.1136 2.51283 15.1838 2.68964 15.1838H6.68964V10.5171H2.02297Z" fill="white"/>
<path d="M14.6896 16.5171H9.35629V9.18381H16.6896V14.5171C16.6896 15.0476 16.4789 15.5563 16.1038 15.9314C15.7288 16.3064 15.2201 16.5171 14.6896 16.5171ZM10.6896 15.1838H14.6896C14.8664 15.1838 15.036 15.1136 15.161 14.9885C15.2861 14.8635 15.3563 14.694 15.3563 14.5171V10.5171H10.6896V15.1838Z" fill="white"/>
</g>
<defs>
<clipPath id="clip0_14_98">
<rect width="16" height="16" fill="white" transform="translate(0.689636 0.517151)"/>
</clipPath>
</defs>
</svg>
