<svg width="25" height="25" viewBox="0 0 25 25" fill="none" xmlns="http://www.w3.org/2000/svg">
<g clip-path="url(#clip0_14_75)">
<path d="M17.6068 1.28351C16.4807 1.30102 15.3792 1.61536 14.4135 2.19478C13.4478 2.7742 12.6521 3.59818 12.1068 4.58351C11.5614 3.59818 10.7657 2.7742 9.80001 2.19478C8.83431 1.61536 7.73282 1.30102 6.60677 1.28351C4.81171 1.3615 3.12048 2.14676 1.90255 3.46774C0.684629 4.78872 0.0390193 6.53803 0.10677 8.33351C0.10677 15.1085 11.0628 22.9335 11.5288 23.2655L12.1068 23.6745L12.6848 23.2655C13.1508 22.9355 24.1068 15.1085 24.1068 8.33351C24.1745 6.53803 23.5289 4.78872 22.311 3.46774C21.0931 2.14676 19.4018 1.3615 17.6068 1.28351ZM12.1068 21.2125C8.85377 18.7825 2.10677 12.8125 2.10677 8.33351C2.03841 7.06822 2.47314 5.82724 3.31613 4.88121C4.15913 3.93518 5.342 3.36086 6.60677 3.28351C7.87154 3.36086 9.05441 3.93518 9.89741 4.88121C10.7404 5.82724 11.1751 7.06822 11.1068 8.33351H13.1068C13.0384 7.06822 13.4731 5.82724 14.3161 4.88121C15.1591 3.93518 16.342 3.36086 17.6068 3.28351C18.8715 3.36086 20.0544 3.93518 20.8974 4.88121C21.7404 5.82724 22.1751 7.06822 22.1068 8.33351C22.1068 12.8145 15.3598 18.7825 12.1068 21.2125Z" fill="#253D4E"/>
</g>
<defs>
<clipPath id="clip0_14_75">
<rect width="24" height="24" fill="white" transform="translate(0.106812 0.366516)"/>
</clipPath>
</defs>
</svg>
