<svg width="27" height="26" viewBox="0 0 27 26" fill="none" xmlns="http://www.w3.org/2000/svg">
<g clip-path="url(#clip0_192_4378)">
<path d="M20.6293 8.38686L22.0462 7.56033C18.9806 2.2939 12.3728 0.282014 6.89243 2.94644V0.930145H5.2525V5.84994H10.1723V4.21001H8.07728C12.7161 2.24224 18.0944 4.03197 20.6293 8.38686Z" fill="#253D4E"/>
<path d="M5.66246 21.1635C1.86054 18.0758 0.859874 12.686 3.30014 8.43938L1.87832 7.61942C-0.904997 12.4662 0.148145 18.6069 4.38741 22.2492H2.3826V23.8892H7.30239V18.9694H5.66246V21.1635Z" fill="#253D4E"/>
<path d="M22.8522 11.2355L19.3739 14.7146L20.5333 15.874L21.9272 14.4801C21.3805 19.5603 17.0996 23.4158 11.9901 23.43V25.0699C18.0778 25.0539 23.128 20.3557 23.5827 14.2849L25.1718 15.874L26.3313 14.7146L22.8522 11.2355Z" fill="#253D4E"/>
</g>
<defs>
<clipPath id="clip0_192_4378">
<rect width="26" height="26" fill="white" transform="translate(0.331299)"/>
</clipPath>
</defs>
</svg>
