<svg width="25" height="25" viewBox="0 0 25 25" fill="none" xmlns="http://www.w3.org/2000/svg">
<g clip-path="url(#clip0_14_66)">
<path d="M24.8248 3.36652H5.06683L5.02483 3.01552C4.93888 2.28593 4.58821 1.61325 4.03932 1.12499C3.49042 0.636739 2.78146 0.366858 2.04683 0.366516L0.824829 0.366516V2.36652H2.04683C2.29176 2.36655 2.52817 2.45647 2.7112 2.61923C2.89424 2.78199 3.01117 3.00626 3.03983 3.24952L4.62483 16.7175C4.71078 17.4471 5.06144 18.1198 5.61034 18.608C6.15923 19.0963 6.8682 19.3662 7.60283 19.3665H20.8248V17.3665H7.60283C7.35774 17.3665 7.12121 17.2764 6.93815 17.1134C6.7551 16.9505 6.63826 16.7259 6.60983 16.4825L6.47883 15.3665H22.6608L24.8248 3.36652ZM20.9888 13.3665H6.24383L5.30283 5.36652H22.4318L20.9888 13.3665Z" fill="#253D4E"/>
<path d="M7.82483 24.3665C8.9294 24.3665 9.82483 23.4711 9.82483 22.3665C9.82483 21.2619 8.9294 20.3665 7.82483 20.3665C6.72026 20.3665 5.82483 21.2619 5.82483 22.3665C5.82483 23.4711 6.72026 24.3665 7.82483 24.3665Z" fill="#253D4E"/>
<path d="M17.8248 24.3665C18.9294 24.3665 19.8248 23.4711 19.8248 22.3665C19.8248 21.2619 18.9294 20.3665 17.8248 20.3665C16.7203 20.3665 15.8248 21.2619 15.8248 22.3665C15.8248 23.4711 16.7203 24.3665 17.8248 24.3665Z" fill="#253D4E"/>
</g>
<defs>
<clipPath id="clip0_14_66">
<rect width="24" height="24" fill="white" transform="translate(0.824829 0.366516)"/>
</clipPath>
</defs>
</svg>
